<?xml version="1.0" encoding="utf-8"?>
<!-- Generator: Adobe Illustrator 19.2.0, SVG Export Plug-In . SVG Version: 6.00 Build 0)  -->
<svg version="1.1" id="Layer_1" xmlns="http://www.w3.org/2000/svg" xmlns:xlink="http://www.w3.org/1999/xlink" x="0px" y="0px"
	 viewBox="0 0 227.8 223.2" style="enable-background:new 0 0 227.8 223.2;" xml:space="preserve">
<style type="text/css">
	.st0{fill:#FFFFFF;}
</style>
<path class="st0" d="M37.7,168.1c1.4-3,1.3-6.5-0.4-9.4l-0.1-0.1l-0.1-0.1C14.5,123.1,20,76.1,50.1,46.8
	c17.6-17.2,40.7-26.6,65.3-26.6c24.5,0,47.7,9.4,65.3,26.6c17.1,16.7,26.6,39,26.9,62.9s-8.8,46.4-25.5,63.5c0,0,0,0,0,0l-1.5,1.4
	c-17.5,17.2-40.7,26.7-65.3,26.7c-17.2,0-34-4.8-48.7-13.8c-1.6-1-3.4-1.5-5.2-1.5c-1.4,0-2.8,0.3-4,0.8l-28.2,8.5L37.7,168.1z
	 M196.7,34.2c-0.6-0.6-1.2-1.2-1.8-1.8C173.5,11.5,145.3,0,115.4,0C85.6,0,57.4,11.5,36,32.4C18.3,49.6,6.8,72.5,3.7,97
	c-3,23.5,1.9,47.6,13.7,68.1L0,223.2l60.3-16c16.9,9.4,35.9,14.4,55.2,14.4c29.9,0,58.1-11.5,79.4-32.5
	C238.1,146.9,238.9,77.4,196.7,34.2z"/>
<path class="st0" d="M169.8,133L169.8,133c-1.2-1.7-2.9-2.9-4.9-3.6l-1.4-0.7c-0.1,0-14.9-7.3-17.7-8.3c-2.1-0.8-6.4-2.2-9.6,2.5
	c-1.4,2.2-5.8,7.2-7.8,9.5c-0.2,0.2-0.3,0.3-0.3,0.3c-0.5-0.1-0.9-0.2-1.3-0.5c-0.4-0.2-1.1-0.5-1.8-0.8
	c-6.6-2.6-12.6-6.4-17.9-11.1c-5.3-4.8-9.9-10.4-13.5-16.6l-0.3-0.4c0.2-0.3,0.5-0.5,0.7-0.8c0.9-0.9,1.8-2,2.7-3.1l1.3-1.5
	c1.1-1.3,2-2.7,2.7-4.2l0.3-0.7c1.2-2.3,1.1-5.1-0.2-7.4c-0.4-0.8-3-7.1-5-11.7l-2.8-6.7c-2.4-5.6-5.4-6.3-8.3-6.3h-0.4
	c-1.5,0-3.3,0-5.1,0c-3.5,0.1-6.9,1.6-9.2,4.2l-0.5,0.5c-6.1,6-9.4,14.2-9.3,22.7c0,12.1,7.7,23.6,11.1,28l0.4,0.6
	c7.4,10.4,23,29.2,44.5,38.4c4.8,2.1,9.8,3.9,14.8,5.4c3.5,1.1,7.2,1.6,10.9,1.6c2.2,0,4.4-0.2,6.6-0.5c5.3-0.8,17.1-6.4,19.9-14.1
	C170.5,142.7,171.5,135.8,169.8,133z"/>
</svg>
